<svg width="30" height="30" viewBox="0 0 30 30" fill="none" xmlns="http://www.w3.org/2000/svg">
<path d="M30 15C30 12.0333 29.1203 9.13319 27.4721 6.66645C25.8238 4.19972 23.4811 2.27713 20.7403 1.14181C17.9994 0.00649914 14.9834 -0.290551 12.0737 0.288228C9.16394 0.867006 6.49119 2.29562 4.3934 4.3934C2.29562 6.49119 0.867006 9.16394 0.288228 12.0737C-0.290551 14.9834 0.00649914 17.9994 1.14181 20.7403C2.27713 23.4811 4.19972 25.8238 6.66645 27.4721C9.13319 29.1203 12.0333 30 15 30C18.977 29.9959 22.7899 28.4143 25.6021 25.6021C28.4143 22.7899 29.9959 18.977 30 15ZM15 4.55242C15.4504 4.55242 15.8906 4.68596 16.265 4.93616C16.6395 5.18636 16.9313 5.54197 17.1037 5.95804C17.276 6.3741 17.3211 6.83193 17.2332 7.27362C17.1454 7.71531 16.9285 8.12103 16.6101 8.43947C16.2916 8.75791 15.8859 8.97477 15.4442 9.06263C15.0025 9.15048 14.5447 9.10539 14.1286 8.93305C13.7126 8.76071 13.357 8.46887 13.1068 8.09442C12.8566 7.71997 12.723 7.27974 12.723 6.8294C12.7287 6.22725 12.9704 5.65136 13.3962 5.22555C13.822 4.79975 14.3979 4.55805 15 4.55242ZM12.723 24.4317C12.6344 24.6381 12.4867 24.8138 12.2986 24.9367C12.1104 25.0596 11.8902 25.1241 11.6655 25.1223C11.4958 25.1206 11.3289 25.0789 11.1783 25.0005C11.035 24.936 10.9062 24.8433 10.7995 24.7279C10.6929 24.6125 10.6105 24.4768 10.5574 24.3289C10.5043 24.181 10.4816 24.0239 10.4905 23.867C10.4995 23.7101 10.5399 23.5566 10.6095 23.4157C11.6266 21.1383 12.5099 18.8034 13.2549 16.4229C13.4172 15.3596 13.512 14.287 13.5385 13.2117C13.5452 13.079 13.5093 12.9476 13.4361 12.8367C13.3629 12.7258 13.2562 12.6412 13.1316 12.5951L8.09199 11.1305C7.93987 11.0853 7.79817 11.0105 7.67498 10.9105C7.55179 10.8104 7.44954 10.6871 7.37408 10.5475C7.29862 10.4079 7.25143 10.2547 7.23521 10.0969C7.21899 9.939 7.23406 9.77948 7.27955 9.62745C7.39234 9.33892 7.60957 9.1034 7.88807 8.96773C8.16656 8.83205 8.48592 8.80615 8.78264 8.89518C10.8076 9.57017 12.8896 10.0604 15.0031 10.3597C17.1443 10.0496 19.2531 9.54655 21.3037 8.85664C21.4532 8.81392 21.6097 8.80107 21.7641 8.81882C21.9186 8.83657 22.0681 8.88457 22.204 8.96008C22.3399 9.0356 22.4597 9.13714 22.5563 9.25892C22.653 9.3807 22.7248 9.52033 22.7675 9.66984C22.8102 9.81935 22.823 9.97581 22.8053 10.1303C22.7875 10.2848 22.7395 10.4342 22.664 10.5701C22.5885 10.7061 22.487 10.8258 22.3652 10.9225C22.2434 11.0191 22.1038 11.0909 21.9543 11.1336L16.9548 12.6382C16.8255 12.6771 16.7139 12.7601 16.6395 12.8728C16.5652 12.9855 16.5327 13.1207 16.5478 13.2549C16.5751 14.3302 16.6698 15.4027 16.8315 16.4661C17.5751 18.8461 18.4574 21.1805 19.4738 23.4574C19.6041 23.7436 19.6176 24.0693 19.5113 24.3653C19.4051 24.6613 19.1875 24.9041 18.9049 25.0421C18.7544 25.1205 18.5875 25.1622 18.4178 25.1639C18.1921 25.1706 17.9697 25.108 17.7806 24.9845C17.5916 24.8611 17.4449 24.6826 17.3602 24.4733L15.0015 19.554L12.723 24.4317Z" fill="#020000"/>
</svg>
