<svg width="38" height="30" viewBox="0 0 38 30" fill="none" xmlns="http://www.w3.org/2000/svg">
<path d="M11.8399 0.653901L2.9602 14.2246C0.987377 17.1465 0.000633101 19.55 -3.33927e-05 21.4348C-0.0360682 23.5111 0.749392 25.5175 2.1854 27.0175C2.87084 27.7713 3.70984 28.3695 4.6459 28.7719C5.58196 29.1742 6.59335 29.3713 7.61199 29.3499C8.59583 29.3661 9.57251 29.1799 10.4814 28.803C11.3903 28.426 12.212 27.8662 12.8956 27.1584C13.6112 26.448 14.1741 25.5989 14.5499 24.6631C14.9257 23.7274 15.1065 22.7248 15.081 21.7168C15.097 20.0762 14.6034 18.471 13.6684 17.1229C12.7475 15.7724 11.415 14.7555 9.8694 14.2236L17.6204 0.653901H11.8379H11.8399ZM30.0471 14.2196L37.7981 0.649902H32.0216L23.1419 14.2196C21.1691 17.1415 20.1824 19.545 20.1817 21.4298C20.1454 23.5059 20.9305 25.5124 22.3661 27.0125C23.053 27.7371 23.8782 28.3168 24.7928 28.7172C25.7075 29.1177 26.6931 29.3308 27.6915 29.3439C28.6899 29.357 29.6808 29.17 30.6057 28.7938C31.5305 28.4175 32.3706 27.8598 33.0764 27.1534C33.7921 26.4431 34.3552 25.594 34.7312 24.6583C35.1072 23.7225 35.2881 22.7199 35.2628 21.7118C35.2794 20.0714 34.7865 18.4662 33.8522 17.1179C32.9288 15.766 31.593 14.7489 30.0441 14.2186L30.0471 14.2196Z" fill="black"/>
</svg>
