<svg width="30" height="30" viewBox="0 0 30 30" fill="none" xmlns="http://www.w3.org/2000/svg">
<path d="M15.0001 0.600222C7.04746 0.600222 0.600098 7.04758 0.600098 15.0002C0.600098 22.9529 7.04746 29.4002 15.0001 29.4002C17.4263 29.4002 19.7163 28.799 21.7227 27.7377C21.9489 27.6177 22.0364 27.3365 21.9164 27.1102C21.7964 26.8827 21.5152 26.7965 21.2889 26.9165C19.4114 27.909 17.2726 28.4715 15.0003 28.4715C11.279 28.4715 7.91388 26.964 5.47516 24.5265C3.03641 22.0865 1.52892 18.7214 1.52892 15.0001C1.52892 11.2789 3.03641 7.91374 5.47388 5.47502C7.91388 3.03626 11.279 1.52878 15.0003 1.52878C18.7216 1.52878 22.0867 3.03626 24.5254 5.47374C26.9642 7.91249 28.4704 11.2776 28.4704 14.9989C28.4704 16.0276 28.3554 17.0289 28.1378 17.9901C27.9603 18.7626 27.5679 19.4439 27.0341 19.9251C26.4978 20.4064 25.8279 20.6914 25.0466 20.6926C24.2079 20.6926 23.4529 20.3551 22.8966 19.8114V9.38257C22.8966 9.26007 22.8466 9.14007 22.7604 9.05383C22.6741 8.96759 22.5541 8.91758 22.4316 8.91758L7.56793 8.91883C7.44544 8.91883 7.32544 8.96883 7.2392 9.05508C7.15295 9.14133 7.10295 9.26133 7.10295 9.38382V19.9989C7.10295 20.1214 7.15295 20.2414 7.2392 20.3276C7.32545 20.4138 7.44545 20.4638 7.56793 20.4638H22.2329C22.9554 21.1789 23.9492 21.6251 25.0467 21.6251C26.0629 21.6263 26.9679 21.2401 27.6554 20.6188C28.3454 19.9976 28.8254 19.1476 29.0429 18.2013V18.2001C29.2766 17.1688 29.4004 16.0988 29.4004 15.0001C29.4004 7.04746 22.9527 0.600222 15.0001 0.600222ZM21.9675 19.5327H8.03242V11.7401L14.7287 16.5577C14.89 16.6739 15.11 16.6739 15.2712 16.5577L21.9676 11.7401L21.9675 19.5327ZM21.9675 10.5951L15.0001 15.6089L8.03274 10.5951V9.84637H21.9678L21.9675 10.5951Z" fill="#020000"/>
</svg>
