<svg width="360" height="24" viewBox="0 0 360 24" fill="none" xmlns="http://www.w3.org/2000/svg">
<path d="M110.504 24V15.0067C110.504 11.806 109.177 10.1549 106.654 10.1549C106.083 10.1323 105.514 10.2368 104.988 10.4607C104.463 10.6847 103.993 11.0225 103.613 11.4498C102.965 12.29 102.771 13.1312 102.771 15.0067V24H99.7638V15.0067C99.7638 12.9682 99.6632 12.5164 99.1178 11.6742C98.7842 11.1808 98.329 10.7817 97.7962 10.5154C97.2634 10.2491 96.671 10.1246 96.0761 10.1539C95.5172 10.1411 94.9617 10.2437 94.4443 10.4553C93.9268 10.6668 93.4585 10.9828 93.0686 11.3834C92.3241 12.1884 92.0977 13.0648 92.0977 15.0057V23.999H89.0872V7.82554H91.9045V9.57228C92.444 8.84052 93.1604 8.25771 93.9867 7.87846C94.8129 7.49921 95.7219 7.33594 96.6285 7.40395C97.6232 7.36474 98.6102 7.59325 99.4865 8.06563C100.363 8.53801 101.096 9.23694 101.61 10.0895C102.147 9.19845 102.923 8.47503 103.848 8.00059C104.774 7.52615 105.814 7.31952 106.851 7.40395C111.025 7.40395 113.515 9.89527 113.515 14.1323V24H110.507H110.504Z" fill="#231F20"/>
<path d="M137.851 23.5781V21.0556C136.621 22.9955 134.55 23.9997 131.801 23.9997C130.697 24.0092 129.603 23.796 128.583 23.3729C127.563 22.9498 126.639 22.3254 125.866 21.5372C125.093 20.7489 124.487 19.8128 124.083 18.7849C123.68 17.7571 123.488 16.6584 123.519 15.5548C123.484 14.4333 123.677 13.3163 124.085 12.2711C124.493 11.2259 125.109 10.2742 125.895 9.47329C126.681 8.67238 127.621 8.03886 128.658 7.61089C129.695 7.18292 130.808 6.96935 131.93 6.98307C134.421 6.98307 136.816 8.08384 137.851 9.73298V7.40366H140.668V23.5781H137.851ZM126.528 15.587C126.587 16.6764 126.965 17.7244 127.616 18.6002C128.266 19.476 129.16 20.1409 130.186 20.5119C131.212 20.883 132.325 20.9437 133.385 20.6867C134.445 20.4296 135.407 19.8661 136.149 19.0664C136.891 18.2667 137.381 17.2662 137.558 16.1897C137.736 15.1131 137.592 14.0083 137.145 13.0128C136.699 12.0174 135.969 11.1755 135.047 10.592C134.125 10.0086 133.052 9.70947 131.961 9.73198C130.467 9.79457 129.058 10.4448 128.04 11.5411C127.023 12.6374 126.48 14.0911 126.529 15.586L126.528 15.587Z" fill="#231F20"/>
<path d="M165.285 7.82556L160.012 15.7181L165.641 24H162.083L158.103 18.2738L154.189 24H150.668L156.265 15.7181L150.862 7.82556H154.551L158.108 13.1583L161.602 7.82556H165.285Z" fill="#231F20"/>
<path d="M175.644 23.5691V1.98639H178.684V9.65353C179.324 8.77544 180.169 8.06626 181.144 7.58717C182.119 7.10808 183.196 6.87348 184.282 6.90362C186.537 6.95015 188.682 7.88863 190.246 9.51343C191.81 11.1382 192.666 13.3168 192.627 15.5719C192.64 16.6745 192.433 17.7685 192.019 18.7903C191.605 19.8122 190.991 20.7416 190.215 21.5244C189.438 22.3071 188.514 22.9278 187.495 23.3501C186.477 23.7725 185.384 23.9882 184.282 23.9846C183.161 24.061 182.039 23.8518 181.02 23.3767C180.002 22.9016 179.12 22.1761 178.458 21.2679V23.5651H175.641L175.644 23.5691ZM178.588 15.419C178.551 16.1742 178.669 16.929 178.934 17.6371C179.2 18.3452 179.607 18.9916 180.13 19.5369C180.654 20.0821 181.284 20.5147 181.981 20.808C182.678 21.1014 183.427 21.2493 184.183 21.2428C185.661 21.1502 187.048 20.4958 188.059 19.4138C189.07 18.3318 189.628 16.904 189.62 15.4232C189.612 13.9425 189.038 12.5208 188.016 11.4497C186.993 10.3786 185.6 9.73923 184.121 9.66259C183.38 9.67672 182.65 9.83662 181.971 10.1332C181.292 10.4297 180.678 10.857 180.164 11.3908C179.65 11.9246 179.246 12.5544 178.976 13.2441C178.706 13.9339 178.574 14.6702 178.588 15.4109V15.419Z" fill="#231F20"/>
<path d="M220.068 15.0319C220.118 16.7659 219.648 18.4752 218.721 19.9413C217.793 21.4073 216.45 22.5634 214.862 23.2619C213.274 23.9603 211.514 24.1693 209.806 23.8622C208.099 23.5551 206.522 22.7458 205.277 21.5378C204.032 20.3298 203.175 18.7779 202.817 17.0806C202.458 15.3833 202.614 13.6176 203.264 12.0093C203.915 10.401 205.03 9.02314 206.467 8.05188C207.905 7.08061 209.599 6.56006 211.334 6.55676C212.465 6.53396 213.59 6.73571 214.643 7.15033C215.696 7.56495 216.657 8.18422 217.469 8.97233C218.281 9.76044 218.929 10.7018 219.375 11.7419C219.821 12.7819 220.057 13.9002 220.068 15.0319ZM205.641 14.9987C205.637 16.1292 205.97 17.2352 206.596 18.1765C207.222 19.1178 208.114 19.8521 209.158 20.2862C210.202 20.7203 211.351 20.8347 212.46 20.6149C213.569 20.3952 214.587 19.8511 215.387 19.0517C216.186 18.2523 216.73 17.2335 216.95 16.1246C217.17 15.0156 217.055 13.8664 216.621 12.8225C216.187 11.7787 215.453 10.8872 214.512 10.2611C213.57 9.63501 212.464 9.30248 211.334 9.30566C209.829 9.32266 208.391 9.92805 207.327 10.9923C206.263 12.0565 205.657 13.4939 205.641 14.9987Z" fill="#231F20"/>
<path d="M241.395 24V15.2009C241.395 11.7728 240.102 10.1549 237.383 10.1549C234.732 10.1549 233.145 12.0304 233.145 15.2009V24H230.072V7.82554H232.889V9.53606C233.462 8.82667 234.194 8.26316 235.027 7.89182C235.859 7.52048 236.768 7.3519 237.678 7.39993C238.571 7.34355 239.465 7.47681 240.303 7.79093C241.141 8.10505 241.902 8.59292 242.538 9.22247C243.174 9.85202 243.669 10.609 243.991 11.4436C244.313 12.2782 244.455 13.1716 244.407 14.0649V23.996H241.398L241.395 24Z" fill="#231F20"/>
<path d="M270.395 18.4991C269.837 20.1119 268.788 21.5097 267.396 22.4963C266.003 23.4828 264.337 24.0086 262.631 23.9999C260.407 23.9056 258.306 22.9504 256.774 21.3361C255.241 19.7217 254.396 17.5748 254.417 15.3488C254.438 13.1228 255.323 10.9922 256.886 9.40716C258.449 7.82209 260.567 6.90673 262.793 6.85448C264.979 6.91113 267.055 7.82444 268.574 9.39754C270.093 10.9706 270.933 13.0776 270.913 15.2642C270.913 15.5872 270.882 16.2352 270.812 16.8167H257.451C257.691 18.058 258.353 19.1779 259.325 19.9861C260.297 20.7943 261.52 21.2409 262.784 21.25C263.724 21.2514 264.646 20.9959 265.452 20.5111C266.257 20.0262 266.915 19.3305 267.354 18.4991H270.395ZM267.904 14.4884C267.81 13.151 267.208 11.9003 266.222 10.9922C265.235 10.084 263.939 9.58721 262.599 9.60337C261.864 9.6199 261.141 9.78631 260.473 10.0924C259.805 10.3985 259.207 10.8378 258.716 11.3833C257.957 12.2466 257.513 13.3408 257.454 14.4884H267.904Z" fill="#231F20"/>
</svg>
