<svg xmlns="http://www.w3.org/2000/svg" width="30" height="30" viewBox="0 0 30 30">
    <path fill="#000000" fill-rule="nonzero" d="M3.071 14.47a.5.5 0 0 0 .147.354l12.288 12.289L26.82 15.799 14.53 3.51a.5.5 0 0 0-.353-.146H3.07v11.107zm-2 0V3.365a2 2 0 0 1 2-2h11.107a2.5 2.5 0 0 1 1.767.732l12.289 12.289a2 2 0 0 1 0 2.828L16.92 28.527a2 2 0 0 1-2.828 0L1.803 16.238a2.5 2.5 0 0 1-.732-1.767zm7.364-5.742a2 2 0 1 0-2.828-2.829 2 2 0 0 0 2.828 2.829zm11.592 10.844a2.7 2.7 0 0 0 .77-1.895C20.797 16.2 19.616 15 18.16 15c-.728 0-2.15.273-2.637 2.128C15.11 15.245 13.614 15 12.887 15c-1.456 0-2.637 1.2-2.637 2.677 0 .739.295 1.403.77 1.895l3.914 3.974a.827.827 0 0 0 1.179 0l3.914-3.974z"/>
</svg>
