<svg width="20" height="20" viewBox="0 0 20 20" fill="none" xmlns="http://www.w3.org/2000/svg">
<path d="M13.6035 0.379883H6.38751C4.79298 0.380148 3.26386 1.01385 2.13635 2.14136C1.00885 3.26886 0.375265 4.79799 0.375 6.39252V13.6078C0.375 15.2024 1.00842 16.7314 2.13599 17.8589C3.26355 18.9865 4.7929 19.6199 6.38751 19.6199H13.6025C14.3921 19.6199 15.174 19.4648 15.9035 19.1626C16.6329 18.8604 17.2956 18.4173 17.8539 17.8589C18.4122 17.3006 18.8552 16.6381 19.1574 15.9086C19.4595 15.1791 19.615 14.3974 19.615 13.6078V6.39252C19.6148 4.79816 18.9813 3.26932 17.8541 2.14185C16.7268 1.01437 15.1979 0.380413 13.6035 0.379883ZM17.8117 13.6078C17.8104 14.7235 17.3666 15.7927 16.5777 16.5816C15.7888 17.3706 14.7192 17.8147 13.6035 17.816H6.38751C5.27165 17.8149 4.20181 17.3711 3.41268 16.5821C2.62355 15.7932 2.17953 14.7236 2.17821 13.6078V6.39252C2.17953 5.27665 2.62355 4.20711 3.41268 3.41817C4.20181 2.62923 5.27165 2.18537 6.38751 2.18431H13.6025C14.7182 2.18563 15.7878 2.62926 16.5768 3.41817C17.3657 4.20708 17.8094 5.27683 17.8107 6.39252L17.8117 13.6078Z" fill="#020000"/>
<path d="M9.99794 5.19189C9.04661 5.19189 8.11671 5.47406 7.32571 6.00259C6.53471 6.53112 5.91817 7.28245 5.55411 8.16136C5.19005 9.04028 5.09483 10.0074 5.28042 10.9405C5.46602 11.8735 5.92408 12.7306 6.59677 13.4033C7.26946 14.076 8.12656 14.5341 9.05961 14.7197C9.99266 14.9053 10.9598 14.8099 11.8387 14.4459C12.7176 14.0818 13.4688 13.4656 13.9974 12.6746C14.5259 11.8836 14.808 10.9532 14.808 10.0019C14.808 8.72621 14.3012 7.50303 13.3991 6.60098C12.4971 5.69893 11.2736 5.19189 9.99794 5.19189ZM9.99794 13.008C9.4035 13.008 8.82237 12.8316 8.3281 12.5014C7.83383 12.1711 7.44867 11.702 7.22114 11.1528C6.99361 10.6036 6.93405 9.99924 7.04995 9.41621C7.16584 8.83318 7.45198 8.2977 7.87224 7.8773C8.2925 7.4569 8.82791 7.17049 9.4109 7.0544C9.9939 6.93831 10.5982 6.9974 11.1475 7.22474C11.6967 7.45209 12.1663 7.83754 12.4967 8.3317C12.8271 8.82586 13.0036 9.40649 13.0038 10.0009C13.0027 10.7979 12.6857 11.5619 12.1223 12.1255C11.5589 12.6892 10.7949 13.0067 9.99794 13.008Z" fill="#020000"/>
<path d="M15.1703 5.47048C15.5243 5.47048 15.8113 5.18349 15.8113 4.82948C15.8113 4.47546 15.5243 4.18848 15.1703 4.18848C14.8163 4.18848 14.5293 4.47546 14.5293 4.82948C14.5293 5.18349 14.8163 5.47048 15.1703 5.47048Z" fill="#231F20"/>
</svg>
