<svg width="20" height="14" viewBox="0 0 20 14" fill="none" xmlns="http://www.w3.org/2000/svg">
<path d="M18.4193 1.27373C17.8976 0.344874 17.331 0.173837 16.1786 0.109847C15.0262 0.0458563 12.1306 0 9.62095 0C7.11126 0 4.20974 0.0318819 3.05834 0.10887C1.90694 0.185859 1.34026 0.343874 0.81354 1.27373C0.286815 2.20359 0 3.79824 0 6.61082V6.62107C0 9.42065 0.275821 11.0305 0.81354 11.9484C1.35126 12.8663 1.90596 13.048 3.05736 13.123C4.20876 13.198 7.10726 13.2299 9.62095 13.2299C12.1346 13.2299 15.0271 13.19 16.1795 13.124C17.3319 13.058 17.8986 12.8782 18.4203 11.9494C18.963 11.0315 19.2369 9.42262 19.2369 6.62205V6.61228C19.2369 3.79771 18.963 2.19759 18.4193 1.27373ZM7.21425 10.2226V3.00541L13.226 6.61423L7.21425 10.2226Z" fill="#020000"/>
</svg>
