<svg width="20" height="20" viewBox="0 0 20 20" fill="none" xmlns="http://www.w3.org/2000/svg">
<path d="M16.8349 2.06349e-05H2.40501C1.76732 0.000550053 1.15582 0.254383 0.704907 0.705294C0.253997 1.1562 0.000529418 1.76759 0 2.40527V16.8353C0.000529418 17.473 0.253997 18.0844 0.704907 18.5353C1.15582 18.9862 1.76732 19.2395 2.40501 19.2401H9.6199V12.6271H7.21489V9.61614H9.6199V7.21723C9.6199 6.26047 10.0001 5.34307 10.6766 4.66654C11.3531 3.99 12.2706 3.60985 13.2274 3.60985H15.6324V6.61641H14.433C13.7692 6.61641 13.2334 6.55453 13.2334 7.21626V9.62102H16.2392L15.0396 12.6281H13.2405V19.241H16.848C17.4857 19.2405 18.097 18.9872 18.5479 18.5363C18.9989 18.0853 19.2524 17.474 19.253 16.8363V2.40625C19.2527 2.08935 19.1899 1.77538 19.0681 1.4828C18.9464 1.19023 18.7681 0.924912 18.5434 0.701389C18.3188 0.477867 18.0523 0.300909 17.7591 0.18061C17.4659 0.0603105 17.1518 -0.00129495 16.8349 2.06349e-05Z" fill="#020000"/>
</svg>
