<svg width="184" height="26" viewBox="0 0 184 26" fill="none" xmlns="http://www.w3.org/2000/svg">
<g clip-path="url(#clip0_1_757)">
<path d="M13.8 3.32007C13.8 1.32007 11.9 0.820068 10.4 0.820068V1.12007C11.3 1.12007 12 1.42007 12 2.12007C12 2.52007 11.7 3.12007 10.8 3.12007C10.1 3.12007 8.6 2.72007 7.5 2.32007C6.2 1.82007 5 1.42007 4 1.42007C2 1.42007 0.6 2.92007 0.6 4.62007C0.6 6.12007 1.7 6.62007 2.1 6.82007L2.2 6.62007C2 6.42007 1.7 6.22007 1.7 5.62007C1.7 5.22007 2.1 4.52007 3.1 4.52007C4 4.52007 5.2 4.92007 6.8 5.42007C8.2 5.82007 9.7 6.12007 10.5 6.22007V9.32007L9 10.6201V10.7201L10.5 12.0201V16.3201C9.7 16.8201 8.8 16.9201 8 16.9201C6.5 16.9201 5.2 16.5201 4.1 15.3201L8.2 13.3201V6.42007L3.2 8.62007C3.6 7.32007 4.7 6.42007 5.8 5.82007L5.7 5.52007C2.7 6.32007 0 9.12007 0 12.5201C0 16.5201 3.3 19.5201 7 19.5201C11 19.5201 13.6 16.3201 13.6 13.0201H13.4C12.8 14.3201 11.9 15.5201 10.8 16.1201V12.0201L12.4 10.7201V10.6201L10.8 9.32007V6.22007C12.3 6.22007 13.8 5.22007 13.8 3.32007ZM5.1 14.3201L3.9 14.9201C3.2 14.0201 2.8 12.8201 2.8 11.1201C2.8 10.4201 2.8 9.62007 3 9.02007L5.1 8.12007V14.3201ZM15.7 16.6201L14.4 17.6201L14.6 17.8201L15.2 17.3201L17.4 19.3201L20.4 17.3201L20.3 17.1201L19.5 17.6201L18.5 16.6201V9.82007L19.3 9.22007L21 10.6201V16.7201C21 20.5201 20.2 21.1201 18.5 21.7201V22.0201C21.3 22.1201 23.9 21.2201 23.9 16.3201V9.72007L24.8 9.02007L24.6 8.82007L23.8 9.42007L21.3 7.32007L18.5 9.42007V1.22007H18.3L14.8 3.62007V3.82007C15.2 4.02007 15.8 4.22007 15.8 5.32007L15.7 16.6201ZM34 15.5201L31.5 17.4201L29 15.4201V14.2201L33.7 11.0201V10.9201L31.3 7.32007L26.1 10.1201V16.7201L25.1 17.5201L25.3 17.7201L26.2 17.0201L29.6 19.5201L34.1 15.9201L34 15.5201ZM29 13.8201V8.92007L29.2 8.82007L31.4 12.3201L29 13.8201ZM53.1 2.42007C53.1 2.12007 53 1.82007 52.9 1.52007H52.7C52.4 2.32007 52 2.72007 51 2.72007C50.1 2.72007 49.5 2.22007 49.1 1.82007L46.2 5.12007L46.4 5.32007L47.4 4.42007C48 4.92007 48.5 5.32007 49.9 5.42007V13.7201L44 3.62007C43.5 2.82007 42.8 1.72007 41.4 1.72007C39.8 1.72007 38.4 3.12007 38.6 5.32007H38.9C39 4.72007 39.3 4.02007 40 4.02007C40.5 4.02007 41 4.52007 41.3 5.02007V8.32007C39.5 8.32007 38.3 9.12007 38.3 10.6201C38.3 11.4201 38.7 12.6201 39.9 12.9201V12.7201C39.7 12.5201 39.6 12.3201 39.6 12.0201C39.6 11.5201 40 11.1201 40.7 11.1201H41.2V15.3201C39.1 15.3201 37.4 16.5201 37.4 18.5201C37.4 20.4201 39 21.3201 40.8 21.2201V21.0201C39.7 20.9201 39.2 20.4201 39.2 19.7201C39.2 18.8201 39.8 18.4201 40.6 18.4201C41.4 18.4201 42.1 18.9201 42.6 19.5201L45.5 16.3201L45.3 16.1201L44.6 16.9201C43.5 15.9201 42.9 15.6201 41.6 15.4201V5.42007L49.6 19.4201H50.2V5.42007C51.7 5.32007 53.1 4.12007 53.1 2.42007ZM60.4 15.5201L57.9 17.4201L55.4 15.4201V14.2201L60.1 11.0201V10.9201L57.7 7.32007L52.5 10.1201V16.7201L51.5 17.5201L51.7 17.7201L52.6 17.0201L56 19.5201L60.5 15.9201L60.4 15.5201ZM55.4 13.8201V8.92007L55.6 8.82007L57.8 12.3201L55.4 13.8201ZM76.7 8.42007L76 8.92007L74.1 7.32007L71.9 9.32007L72.8 10.2201V17.7201L70.4 16.2201V10.0201L71.2 9.52007L68.9 7.32007L66.7 9.32007L67.6 10.2201V17.4201L67.3 17.6201L65.2 16.1201V10.1201C65.2 8.72007 64.5 8.32007 63.7 7.82007C63 7.32007 62.6 7.02007 62.6 6.32007C62.6 5.72007 63.2 5.42007 63.5 5.22007V5.02007C62.7 5.02007 60.6 5.82007 60.6 7.72007C60.6 8.72007 61.1 9.12007 61.6 9.62007C62.1 10.1201 62.6 10.5201 62.6 11.4201V17.2201L61.5 18.0201L61.7 18.2201L62.7 17.4201L65 19.4201L67.5 17.7201L70.3 19.4201L75.6 16.3201V9.62007L76.9 8.62007L76.7 8.42007ZM95.3 2.92007L94.3 3.82007L92.1 1.82007L88.8 4.22007V2.02007H88.5L88.6 18.2201C88.3 18.2201 87.4 18.0201 86.7 17.8201L86.5 4.32007C86.5 3.32007 85.8 1.92007 84 1.92007C82.2 1.92007 81 3.32007 81 4.72007H81.3C81.4 4.12007 81.7 3.62007 82.3 3.62007C82.9 3.62007 83.4 4.02007 83.4 5.32007V9.22007C81.6 9.32007 80.5 10.3201 80.5 11.6201C80.5 12.4201 80.9 13.6201 82.1 13.6201V13.4201C81.7 13.2201 81.6 12.9201 81.6 12.7201C81.6 12.1201 82.1 11.9201 82.9 11.9201H83.3V18.1201C81.8 18.6201 81.2 19.7201 81.2 20.9201C81.2 22.6201 82.5 23.8201 84.5 23.8201C85.9 23.8201 87.1 23.6201 88.3 23.3201C89.3 23.1201 90.6 22.8201 91.2 22.8201C92 22.8201 92.3 23.2201 92.3 23.7201C92.3 24.4201 92 24.7201 91.6 24.8201V25.0201C93.2 24.7201 94.2 23.7201 94.2 22.2201C94.2 20.7201 92.7 19.8201 91.1 19.8201C90.3 19.8201 88.6 20.1201 87.4 20.3201C86 20.6201 84.6 20.8201 84.2 20.8201C83.5 20.8201 82.7 20.5201 82.7 19.5201C82.7 18.7201 83.4 18.0201 85.1 18.0201C86 18.0201 87.1 18.1201 88.2 18.4201C89.4 18.7201 90.5 19.0201 91.5 19.0201C93 19.0201 94.3 18.5201 94.3 16.4201V4.12007L95.5 3.12007L95.3 2.92007ZM91.2 9.02007C90.9 9.32007 90.5 9.62007 90 9.62007C89.5 9.62007 89 9.32007 88.8 9.02007V4.62007L89.8 3.92007L91.2 5.22007V9.02007ZM91.2 12.0201C91 11.8201 90.5 11.5201 90 11.5201C89.5 11.5201 89 11.8201 88.8 12.0201V9.42007C89 9.62007 89.5 9.92007 90 9.92007C90.5 9.92007 91 9.62007 91.2 9.42007V12.0201ZM91.2 16.7201C91.2 17.5201 90.7 18.3201 89.6 18.3201H88.8V12.4201C89 12.2201 89.5 11.9201 90 11.9201C90.5 11.9201 90.9 12.2201 91.2 12.4201V16.7201ZM104.9 9.62007L101.7 7.32007L96.8 10.1201V16.6201L95.8 17.4201L95.9 17.6201L96.7 17.0201L99.9 19.4201L104.9 16.4201V9.62007ZM99.5 15.9201V8.72007L102 10.5201V17.6201L99.5 15.9201ZM114.4 7.52007H114.2C113.9 7.72007 113.6 7.92007 113.3 7.92007C112.9 7.92007 112.4 7.72007 112.2 7.42007H112L110.3 9.32007L108.6 7.42007L105.6 9.42007L105.7 9.62007L106.5 9.12007L107.5 10.2201V16.5201L106.2 17.5201L106.4 17.7201L107 17.2201L109.4 19.2201L112.5 17.1201L112.4 16.9201L111.5 17.4201L110.3 16.4201V9.42007C110.8 9.92007 111.4 10.4201 112.1 10.4201C113.5 10.5201 114.3 9.12007 114.4 7.52007ZM126.4 17.1201L123 19.4201L118.4 12.4201L121.7 7.32007H121.9C122.3 7.72007 122.9 8.12007 123.6 8.12007C124.3 8.12007 124.8 7.72007 125.1 7.32007H125.3C125.2 9.32007 123.8 10.5201 122.8 10.5201C121.8 10.5201 121.3 10.0201 120.7 9.72007L120.4 10.2201L125.4 17.6201L126.4 17.0201V17.1201ZM115.4 16.6201L114.1 17.6201L114.3 17.8201L114.9 17.3201L117.1 19.3201L120.1 17.3201L119.9 17.1201L119.1 17.6201L118.1 16.6201V1.22007H118L114.4 3.62007V3.82007C114.8 4.02007 115.4 4.12007 115.4 5.32007V16.6201ZM143 3.32007C143 1.32007 141.1 0.820068 139.6 0.820068V1.12007C140.5 1.12007 141.2 1.42007 141.2 2.12007C141.2 2.52007 140.9 3.12007 140 3.12007C139.3 3.12007 137.8 2.72007 136.7 2.32007C135.4 1.92007 134.2 1.52007 133.2 1.52007C131.2 1.52007 129.8 3.02007 129.8 4.72007C129.8 6.22007 130.9 6.72007 131.3 6.92007L131.4 6.72007C131.1 6.52007 130.8 6.32007 130.8 5.72007C130.8 5.32007 131.2 4.62007 132.2 4.62007C133.1 4.62007 134.3 5.02007 135.9 5.52007C137.3 5.92007 138.8 6.22007 139.6 6.32007V9.42007L138.1 10.7201V10.8201L139.6 12.1201V16.4201C138.8 16.9201 137.9 17.0201 137.1 17.0201C135.6 17.0201 134.3 16.6201 133.2 15.4201L137.3 13.4201V6.42007L132.3 8.62007C132.8 7.32007 133.9 6.42007 134.9 5.72007L134.8 5.52007C131.8 6.32007 129.1 9.02007 129.1 12.4201C129.1 16.4201 132.4 19.4201 136.1 19.4201C140.1 19.4201 142.7 16.2201 142.7 12.9201H142.5C141.9 14.2201 141 15.4201 139.9 16.0201V11.9201L141.5 10.6201V10.5201L140 9.22007V6.22007C141.5 6.22007 143 5.22007 143 3.32007ZM134.3 14.3201L133.1 14.9201C132.4 14.0201 132 12.8201 132 11.1201C132 10.4201 132.1 9.62007 132.3 9.02007L134.4 8.12007L134.3 14.3201ZM146.5 2.32007H146.4L144.4 4.02007V4.12007L146.1 6.02007H146.3L148.3 4.32007V4.22007L146.5 2.32007ZM149.5 17.1201L148.7 17.6201L147.7 16.6201V9.72007L148.7 9.02007L148.5 8.82007L147.8 9.42007L146 7.32007L143.1 9.32007L143.3 9.62007L144 9.12007L144.9 10.2201V16.7201L143.6 17.7201L143.7 17.9201L144.4 17.4201L146.6 19.4201L149.6 17.4201L149.5 17.1201ZM166.2 17.0201L165.5 17.5201L164.4 16.5201V9.72007L165.4 8.92007L165.2 8.72007L164.4 9.42007L162.1 7.32007L159.1 9.42007L156.8 7.32007L154 9.42007L152.2 7.32007L149.3 9.32007L149.4 9.62007L150.1 9.12007L151.1 10.2201V16.7201L150.3 17.5201L152.6 19.4201L154.8 17.4201L153.9 16.5201V9.72007L154.8 9.12007L156.3 10.5201V16.5201L155.5 17.3201L157.8 19.2201L160 17.2201L159.1 16.3201V9.72007L159.9 9.22007L161.5 10.6201V16.6201L160.8 17.3201L163.1 19.4201L166.2 17.3201V17.0201ZM174.9 15.5201L172.4 17.4201L169.9 15.4201V14.2201L174.6 11.0201V10.9201L172.2 7.32007L167 10.1201V16.9201L170.5 19.4201L175 15.8201L174.9 15.5201ZM169.9 13.8201V8.92007L170.1 8.82007L172.3 12.3201L169.9 13.8201ZM184 12.9201L182.1 11.4201C183.4 10.3201 183.9 8.82007 183.9 7.82007V7.22007H183.7C183.5 7.72007 183.1 8.22007 182.3 8.22007C181.5 8.22007 181 7.82007 180.5 7.22007L176 9.72007V13.3201L177.7 14.6201C176 16.1201 175.7 17.1201 175.7 17.9201C175.7 18.9201 176.2 19.6201 177 19.9201L177.1 19.7201C176.9 19.5201 176.7 19.4201 176.7 18.9201C176.7 18.6201 177.1 18.1201 177.9 18.1201C178.9 18.1201 179.5 18.8201 179.8 19.1201L184.1 16.5201V12.9201H184ZM182.9 9.92007C182.2 11.1201 180.7 12.3201 179.8 12.9201L178.7 12.0201V8.52007C179.1 9.52007 180.2 10.3201 181.3 10.3201C182 10.3201 182.4 10.2201 182.9 9.92007ZM181.2 17.9201C180.7 16.8201 179.5 16.0201 178.3 16.0201C178 16.0201 177.2 16.0201 176.4 16.5201C176.9 15.7201 178.2 14.3201 179.9 13.3201L181.1 14.3201L181.2 17.9201Z" fill="black"/>
</g>
<defs>
<clipPath id="clip0_1_757">
<rect width="184" height="25" fill="white" transform="translate(0 0.420044)"/>
</clipPath>
</defs>
</svg>
