<svg width="100" height="70" viewBox="0 0 100 70" fill="none" xmlns="http://www.w3.org/2000/svg">
<g clip-path="url(#clip0_1_747)">
<path d="M8.3279 28.8846C8.3279 33.1781 9.16596 35.2024 11.7287 35.2024C14.3907 35.2024 15.2773 33.083 15.2773 28.4514C15.2773 24.2125 14.3907 22.1437 11.836 22.1437C9.31171 22.1336 8.3279 24.253 8.3279 28.8846ZM2.75908 48.5486C2.75908 51.3077 5.56879 53.1316 10.9392 53.1316C16.6558 53.1316 19.5647 51.5121 19.5647 48.8927C19.5647 47.168 18.2348 46.2308 15.672 45.9858C11.4332 45.5911 7.69228 46.1336 4.87851 45.2955C3.49795 46.0344 2.75908 47.2166 2.75908 48.5486ZM21.6842 28.5891C21.6842 32.6376 18.3826 35.4393 11.9676 36.1781C8.27122 36.5729 6.0526 36.9656 6.0526 38.6903C6.0526 40.4635 9.30564 40.168 14.6781 40.3097C20.5486 40.4575 23.5992 42.083 23.5992 46.2733C23.5992 51.0546 19.0162 54.168 10.8846 54.168C3.78742 54.168 -0.00610352 51.9413 -0.00610352 48.7955C-0.00610352 47.7105 0.485799 46.7712 1.42305 45.9858C2.12463 45.4371 2.92938 45.0351 3.78944 44.8036C2.36637 43.9656 1.67608 42.6923 1.67608 41.0587C1.67608 37.8056 4.23884 35.9818 9.36839 35.6862C4.43924 34.7996 1.87851 32.4332 1.87851 28.8846C1.87851 24.8927 5.62345 21.5425 11.5384 21.2449C11.9757 16.7611 14.2429 14.1498 16.7571 14.1498C18.3765 14.1498 19.4676 15.2834 19.4676 16.7125C19.4676 18.3886 18.334 19.5708 16.8056 19.5708C15.8684 19.5708 15.2287 18.9797 14.4898 18.9797C13.2571 18.9797 12.668 19.67 12.5182 21.2955C18.2348 21.5911 21.6842 24.5971 21.6842 28.583M30.3643 32.7733C30.3643 39.8704 32.089 43.3684 35.7854 43.3684C39.4818 43.3684 41.251 39.8704 41.251 32.7733C41.251 25.6761 39.4291 22.1275 35.7854 22.1275C32.0971 22.1336 30.3643 25.6882 30.3643 32.7733ZM47.9575 32.7733C47.9575 39.4757 42.9797 44.3542 35.7834 44.3542C28.587 44.3542 23.668 39.5303 23.668 32.7733C23.668 26.0708 28.5951 21.1923 35.7915 21.1923C42.9878 21.1923 47.9656 26.0749 47.9656 32.7733M56.8218 32.7733C56.8218 39.8704 58.5465 43.3684 62.2429 43.3684C65.9392 43.3684 67.7085 39.8704 67.7085 32.7733C67.7085 25.6761 65.8866 22.1275 62.2429 22.1275C58.5465 22.1336 56.8218 25.6882 56.8218 32.7733ZM74.4149 32.7733C74.4149 39.4757 69.4372 44.3542 62.2429 44.3542C55.0486 44.3542 50.1194 39.5303 50.1194 32.7733C50.1194 26.0708 55.0465 21.1923 62.2429 21.1923C69.4392 21.1923 74.417 26.0749 74.417 32.7733M87.9069 43.1275C91.2571 43.1275 93.8198 39.7267 93.8198 33.4676C93.8198 27.6518 91.0607 24.2024 88.004 24.2024C86.5263 24.2024 85.2429 24.8441 83.9129 26.0749V36.67C83.9129 40.9089 84.9979 43.1255 87.9048 43.1255M83.9129 48.7935C83.9129 50.8178 84.2591 51.8988 85.5324 52.2915C86.5668 52.6376 87.3056 52.4939 87.3056 53.1295C87.3056 53.4737 87.0587 53.7206 86.6154 53.7206H75.2409C75.1588 53.7289 75.076 53.7198 74.9977 53.6937C74.9195 53.6676 74.8477 53.6253 74.7871 53.5694C74.7264 53.5135 74.6783 53.4455 74.6459 53.3696C74.6135 53.2938 74.5976 53.212 74.5992 53.1295C74.5992 52.5384 75.2894 52.6862 76.1275 52.3421C77.4575 51.7996 77.8036 50.9129 77.8036 48.7935V28.7874C77.8036 26.668 77.3603 25.8785 75.8319 25.2388C75.0445 24.8927 74.4028 24.9433 74.4028 24.4008C74.4028 23.5627 77.4595 23.7611 83.917 21.3461V24.6963C86.8239 22.3805 89.2388 21.1963 91.8117 21.1963C96.5425 21.1963 100.091 25.1397 100.091 31.1518C100.091 38.7895 94.917 44.1619 87.4251 44.1619C86.2416 44.1542 85.0645 43.9881 83.9251 43.668V48.7935H83.9129Z" fill="black"/>
</g>
<defs>
<clipPath id="clip0_1_747">
<rect width="100" height="70" fill="white"/>
</clipPath>
</defs>
</svg>
