<svg width="130" height="50" viewBox="0 0 130 50" fill="none" xmlns="http://www.w3.org/2000/svg">
<path d="M79.1937 17.9759C77.3123 17.9408 75.4551 18.4046 73.8111 19.3202C73.8111 14.5391 73.8111 10.2066 73.9613 8.71301L63.952 10.5052V11.4017L64.9978 11.551C66.3413 11.8495 66.7917 12.5959 67.0877 14.3898C67.3888 17.9759 67.2378 37.1013 67.0877 40.2395C69.8314 40.891 72.6378 41.242 75.4575 41.2861C83.3769 41.2861 88.158 36.3549 88.158 28.5848C88.158 22.4584 84.2751 17.9715 79.1928 17.9715L79.1937 17.9759ZM75.7569 39.6415C75.1553 39.6724 74.5522 39.6225 73.9639 39.4931C73.8137 37.4015 73.6653 28.5848 73.8137 20.8155C74.5298 20.5367 75.289 20.3848 76.0572 20.3669C79.3464 20.3669 81.1394 24.2497 81.1394 29.0317C81.1394 35.0105 78.896 39.645 75.7586 39.645L75.7569 39.6415ZM26.2984 9.31012H0V10.6545L1.49448 10.8037C3.43593 11.1023 4.18403 12.2974 4.48172 15.1362C4.8565 21.705 4.8565 28.2898 4.48172 34.8587C4.18317 37.6984 3.43679 39.0436 1.49448 39.1911L0 39.4914V40.6865H16.8845V39.4914L15.0915 39.1911C13.1492 39.0427 12.4019 37.6984 12.1034 34.8587C11.9533 32.9155 11.804 29.7773 11.804 25.8935L15.39 26.0428C17.6335 26.0428 18.6767 27.8358 19.1254 30.3752H20.4706V19.7698H19.1254C18.6741 22.31 17.6318 24.1022 15.39 24.1022L11.8048 24.2515C11.8048 19.1709 11.9541 14.3898 12.1043 11.551H17.3332C21.3688 11.551 23.4596 14.0904 24.954 18.5738L26.4485 18.1251L26.2984 9.31012Z" fill="black"/>
<path d="M34.8158 17.6773C42.2874 17.6773 46.0227 22.7579 46.0227 29.4813C46.0227 35.9062 41.8387 41.287 34.3672 41.287C26.8956 41.287 23.1611 36.2056 23.1611 29.4813C23.1611 23.0564 27.3443 17.6773 34.8158 17.6773ZM34.3672 19.1718C31.0796 19.1718 30.1831 23.6587 30.1831 29.4813C30.1831 35.159 31.6776 39.7908 34.67 39.7908C38.1042 39.7908 39.0025 35.3082 39.0025 29.4813C38.999 23.8037 37.5063 19.1718 34.3672 19.1718ZM90.1004 29.6314C90.1004 23.5051 93.9833 17.6773 101.606 17.6773C107.88 17.6773 110.87 22.31 110.87 28.4355H96.9775C96.8273 33.9639 99.5169 37.9986 104.897 37.9986C106.732 38.0775 108.535 37.4959 109.978 36.3592L110.574 37.1056C109.501 38.4434 108.134 39.5165 106.58 40.2422C105.025 40.9678 103.325 41.3264 101.61 41.2905C94.8859 41.2905 90.1047 36.5085 90.1047 29.6349L90.1004 29.6314ZM96.9731 26.7926L103.996 26.6425C103.996 23.6544 103.547 19.1718 101.008 19.1718C98.4685 19.1718 97.1215 23.355 96.9731 26.7926ZM128.653 18.8733C126.46 18.0367 124.127 17.6306 121.78 17.6773C116.253 17.6773 112.813 20.964 112.813 24.8494C112.813 28.7349 115.35 30.3778 118.939 31.5737C122.674 32.9172 123.72 33.9639 123.72 35.7569C123.718 36.2334 123.618 36.7044 123.426 37.1403C123.233 37.5763 122.953 37.9678 122.602 38.2903C122.251 38.6129 121.838 38.8596 121.387 39.0149C120.937 39.1701 120.459 39.2307 119.984 39.1928C117.146 39.1928 115.053 37.5534 113.41 33.0665L112.363 33.3668L112.513 39.9409C115.057 40.8384 117.735 41.2934 120.433 41.2861C126.26 41.2861 129.997 38.2963 129.997 33.6653C129.997 30.5271 128.352 28.7349 124.467 27.2396C120.283 25.6001 118.79 24.5509 118.79 22.6077C118.765 22.182 118.828 21.7556 118.975 21.3553C119.122 20.955 119.35 20.5892 119.644 20.2808C119.939 19.9724 120.294 19.7279 120.687 19.5627C121.08 19.3974 121.503 19.3149 121.93 19.3202C124.618 19.3202 126.411 20.964 127.758 24.9987L128.802 24.7002L128.65 18.8733H128.653ZM65.4467 18.2753C62.9073 16.7825 58.4238 17.528 56.0363 22.908L56.1821 17.6782L46.1729 19.6205V20.517L47.2187 20.6663C48.5647 20.8164 49.161 21.5628 49.3111 23.506C49.5352 27.8364 49.5352 32.1755 49.3111 36.5059C49.161 38.2972 48.5647 39.1937 47.2187 39.3438L46.1729 39.494V40.689H60.065V39.494L58.2719 39.3438C56.7783 39.1937 56.3296 38.2972 56.1795 36.5059C55.9024 32.4774 55.8546 28.4364 56.0363 24.4025C56.7826 23.3558 60.0702 22.4602 63.0583 24.4025L65.4492 18.2761L65.4467 18.2753Z" fill="black"/>
</svg>
