<svg width="90" height="50" viewBox="0 0 90 50" fill="none" xmlns="http://www.w3.org/2000/svg">
<path d="M54.8499 36.9833V12.5333H59.2832V36.9833H54.8499Z" fill="black"/>
<path d="M72.8166 36.6667C71.9499 36.95 70.3999 37.2167 69.2499 37.2167C65.3999 37.2167 63.7833 35.4667 63.7833 31.9167V22.25H60.7666V18.6H63.7833V12.5167H68.2166V18.6H72.6833V22.25H68.2166V31.0167C68.2166 32.55 68.7499 33.2833 70.1666 33.2833C71.0333 33.2833 72.1166 33.0667 72.8166 32.7833V36.6667Z" fill="black"/>
<path d="M4.98324 22.3H13.9999V12.5333H18.8332V36.9833H13.9999V26.8H4.98324V36.9833H0.149902V12.5333H4.98324V22.3Z" fill="black"/>
<path d="M36.5833 27.2333C36.5833 22.45 34.4833 18.1667 28.7333 18.1667C23.3166 18.1667 20.45 22.3333 20.45 27.8C20.45 33.6333 23.6333 37.4333 29.4 37.4333C31.7333 37.4333 34.3833 37.0167 35.95 36.2V32.2167C34.4166 33.0333 32.1833 33.6333 30.1333 33.6333C27.2166 33.6333 25.4 32.2667 25.0333 29.1333H36.5166C36.5833 28.5 36.5833 27.85 36.5833 27.2333ZM25 26C25.3166 22.9667 26.6666 21.75 28.8 21.75C30.8333 21.75 32.1833 23.4833 32.1833 26H25ZM45.3666 18.1667C42.9166 18.1667 40.8833 18.5667 39.2833 19.2833V23.2667C40.8833 22.4667 42.8833 22.0167 44.7999 22.0167C47.7166 22.0167 48.35 23.5167 48.3666 25.9667C47.3166 25.6667 46.0166 25.4833 44.75 25.4833C40.6833 25.4833 37.6833 27.6667 37.6833 31.5833C37.6833 35.15 40 37.4 43.6333 37.4C45.7333 37.4 47.3333 36.7167 48.5333 35.3V36.9667H52.8333V25.1833C52.8333 20.95 50.55 18.1667 45.3666 18.1667ZM44.7 34.05C43.0166 34.05 41.9833 33.1833 41.9833 31.4333C41.9833 29.7667 42.9666 28.5667 45.5 28.5667C46.5 28.5667 47.5166 28.7333 48.3666 28.9667V29.9C48.3666 32.5 46.7 34.05 44.7 34.05ZM83.9833 18.1667C81.9333 18.1667 80.15 19.0333 79.0666 20.3V12.5167H74.6166V36.9667H79.0666V26.8333C79.0666 23.85 80.2166 22.0833 82.6 22.0833C84.5166 22.0833 85.5 23.3833 85.5 25.9167V36.9667H89.95V25.05C89.9333 21.2167 88.45 18.1667 83.9833 18.1667Z" fill="black"/>
</svg>
