<svg width="100" height="50" viewBox="0 0 100 50" fill="none" xmlns="http://www.w3.org/2000/svg">
<g clip-path="url(#clip0_1_731)">
<path d="M0.146574 28.5086L1.41077 28.3071V16.6361L0 16.4529L0.0732869 15.1887H8.90436L8.6845 18.7248L6.92561 18.6698L6.81568 16.4529H4.08575V21.7113H5.27666L5.55148 20.502L6.77904 20.5387V24.1664H5.55148L5.25834 22.9205H4.06742V28.4903H6.81568L7.07219 26.0718L8.92268 26.1268L9.06926 29.8095H0.0916087L0.146574 28.5086Z" fill="black"/>
<path d="M9.89362 29.8278L9.94859 28.7468L10.938 28.5452V21.1799L9.78369 21.07V19.9707L12.6785 19.5493L12.8984 20.1722V20.5936C13.5946 19.8607 14.4374 19.421 15.5184 19.421C17.0941 19.421 18.2667 20.3738 18.2667 22.2609V28.5269L19.311 28.7285L19.256 29.8094H15.8115V22.8105C15.8115 21.8028 15.4451 21.2349 14.529 21.2349C14.2176 21.2349 13.9977 21.2898 13.7595 21.3814C13.6129 21.5097 13.4664 21.6929 13.3381 21.8578V28.5636L14.3824 28.7651L14.3092 29.8461H9.89362V29.8278Z" fill="black"/>
<path d="M65.2437 29.8278L65.2804 28.7468L66.2698 28.5452V21.1799L65.1155 21.07V19.9707L68.0103 19.5493L68.2302 20.1722V20.5936C68.9264 19.8607 69.7692 19.421 70.8502 19.421C72.4259 19.421 73.5984 20.3738 73.5984 22.2609V28.5269L74.6428 28.7285L74.5878 29.8094H71.1616V22.8105C71.1616 21.8028 70.7952 21.2349 69.8791 21.2349C69.5677 21.2349 69.3478 21.2898 69.1096 21.3814C68.963 21.5097 68.8165 21.6929 68.6882 21.8578V28.5636L69.7326 28.7651L69.6593 29.8461H65.2437V29.8278Z" fill="black"/>
<path d="M24.771 29.6262C24.3679 29.7911 23.6534 29.9743 22.719 29.9743C21.4914 29.9743 20.3555 29.4247 20.3555 27.6292V21.1799L19.1829 20.9967L19.2378 19.7142L20.557 19.6592L21.125 17.6988L22.8106 17.6255V19.7325H24.6244L24.4962 21.015L22.8289 21.1982V27.6475C22.8289 28.1788 23.122 28.5269 23.6717 28.5269H24.6611L24.771 29.6262Z" fill="black"/>
<path d="M93.3492 29.8278L93.3858 28.7651L94.3203 28.5452V21.1799L93.2209 21.07V19.9707L96.2257 19.5493L96.4273 20.2638V20.502C97.2151 19.9157 98.2778 19.5309 99.5603 19.5309L100 19.9157L99.6885 22.7006L98.0396 22.6456L97.8747 21.1616C97.4899 21.2165 97.1235 21.3265 96.812 21.5463V28.5636L97.8563 28.7834L97.7831 29.8461H93.3492V29.8278Z" fill="black"/>
<path d="M50.2015 29.8278L50.2564 28.7651L51.1909 28.5452V21.1799L50.0916 21.07V19.9707L53.0963 19.5493L53.2979 20.2638V20.502C54.0857 19.9157 55.1484 19.5309 56.4309 19.5309L56.8706 19.9157L56.5225 22.7006L54.8735 22.6456L54.7086 21.1616C54.3239 21.2165 53.9574 21.3265 53.646 21.5463V28.5636L54.6903 28.7834L54.617 29.8461H50.2015V29.8278Z" fill="black"/>
<path d="M25.5037 29.8278L25.5587 28.7651L26.4931 28.5452V21.1799L25.3938 21.07V19.9707L28.3986 19.5493L28.6001 20.2638V20.502C29.3879 19.9157 30.4506 19.5309 31.7148 19.5309L32.1545 19.9157L31.843 22.7006L30.1941 22.6456L30.0292 21.1616C29.6444 21.2165 29.278 21.3265 28.9665 21.5463V28.5636L30.0109 28.7834L29.9376 29.8461H25.5037V29.8278Z" fill="black"/>
<path d="M34.9945 25.339C34.9945 27.0978 35.764 28.4536 37.2847 28.4536C38.0725 28.4536 38.6955 28.2887 39.4284 27.9406L39.8498 28.9117C39.0986 29.5163 37.9993 29.9743 36.6251 29.9743C33.9502 29.9743 32.4111 27.6658 32.4111 24.6977C32.4111 22.1693 33.5288 19.4027 36.5885 19.4027C39.2635 19.4027 40.2712 21.8761 40.2712 24.6244L40.0147 25.284L34.9945 25.339ZM34.9579 24.1664L38.0359 24.0198C37.9809 22.7922 37.7244 20.8501 36.5152 20.8501C36.2221 20.8501 36.0205 20.9051 35.6541 21.0883C35.1594 21.9311 34.9579 23.4518 34.9579 24.1664Z" fill="black"/>
<path d="M77.5741 25.339C77.5741 27.0978 78.3436 28.4536 79.8643 28.4536C80.6521 28.4536 81.2751 28.2887 82.0079 27.9406L82.4293 28.9117C81.6782 29.5163 80.5789 29.9743 79.2047 29.9743C76.5297 29.9743 74.9907 27.6658 74.9907 24.6977C74.9907 22.1693 76.1084 19.4027 79.1681 19.4027C81.8431 19.4027 82.8507 21.8761 82.8507 24.6244L82.5942 25.284L77.5741 25.339ZM77.5374 24.1664L80.6155 24.0198C80.5605 22.7922 80.304 20.8501 79.0948 20.8501C78.8016 20.8501 78.6001 20.9051 78.2337 21.0883C77.739 21.9311 77.5374 23.4518 77.5374 24.1664Z" fill="black"/>
<path d="M59.6922 25.339C59.6922 27.0978 60.4618 28.4536 61.9825 28.4536C62.7703 28.4536 63.3932 28.2887 64.1261 27.9406L64.5475 28.9117C63.7963 29.5163 62.697 29.9743 61.3229 29.9743C58.6479 29.9743 57.1089 27.6658 57.1089 24.6977C57.1089 22.1693 58.2265 19.4027 61.2862 19.4027C63.9612 19.4027 64.9689 21.8761 64.9689 24.6244L64.7124 25.284L59.6922 25.339ZM59.6556 24.1664L62.7337 24.0198C62.6787 22.7922 62.4222 20.8501 61.213 20.8501C60.9198 20.8501 60.7183 20.9051 60.3518 21.0883C59.8571 21.9311 59.6373 23.4518 59.6556 24.1664Z" fill="black"/>
<path d="M89.7766 29.8278L89.5201 28.9484C88.8422 29.5896 88.1826 29.9744 87.1566 29.9744C85.5809 29.9744 84.1701 29.1865 84.1701 27.0063V20.9234L83.0159 20.8135V19.8425L86.3504 19.4577L86.6069 20.3371V26.7131C86.6069 27.8307 87.065 28.417 87.9627 28.417C88.2192 28.417 88.549 28.3804 88.8422 28.2705C89.0071 28.1056 89.172 27.904 89.3002 27.7025V20.9234L88.1093 20.8135V19.8425L91.4805 19.4577L91.737 20.3371V28.5453L92.7813 28.7468L92.6531 29.8278H89.7766Z" fill="black"/>
<path d="M45.273 28.5086C44.7417 28.5086 44.3203 28.417 43.9905 28.2338V21.7662C44.137 21.5463 44.3019 21.3448 44.4668 21.1616C44.7783 21.0517 45.0531 21.015 45.3829 21.015C46.7571 21.015 46.9952 22.4075 46.9952 24.8992C46.9952 27.2994 46.6288 27.9589 46.5372 28.2338C46.1524 28.417 45.7494 28.5086 45.273 28.5086ZM49.3771 24.4595C49.3771 21.3631 48.461 19.421 46.1708 19.421C44.6501 19.421 43.9355 20.3005 43.6424 20.6669V20.3188L43.3859 19.4393L40.3994 19.8607V20.9234L41.5537 21.07V33.5654L40.5643 33.7669L40.5093 34.8113H44.9249L44.9982 33.7669L43.9538 33.5654V29.6079C44.3752 29.8461 44.9615 29.9927 45.6028 29.9927C49.3404 29.9927 49.3771 26.2001 49.3771 24.4595Z" fill="black"/>
</g>
<defs>
<clipPath id="clip0_1_731">
<rect width="100" height="50" fill="white"/>
</clipPath>
</defs>
</svg>
