<svg width="130" height="48" viewBox="0 0 130 48" fill="none" xmlns="http://www.w3.org/2000/svg">
<g clip-path="url(#clip0_1_728)">
<path d="M16.7039 15.8659V32.1341C16.7039 33.9639 17.4308 35.7188 18.7247 37.0127C20.0186 38.3066 21.7735 39.0335 23.6034 39.0335C25.4332 39.0335 27.1881 38.3066 28.482 37.0127C29.7759 35.7188 30.5028 33.9639 30.5028 32.1341V15.8659C30.5028 14.0361 29.7759 12.2812 28.482 10.9873C27.1881 9.6934 25.4332 8.96649 23.6034 8.96649C21.7735 8.96649 20.0186 9.6934 18.7247 10.9873C17.4308 12.2812 16.7039 14.0361 16.7039 15.8659ZM21.6425 32.1341V15.8659C21.6395 15.6046 21.6912 15.3456 21.7943 15.1054C21.8974 14.8653 22.0496 14.6493 22.2411 14.4715C22.4326 14.2937 22.6592 14.1579 22.9063 14.0728C23.1534 13.9878 23.4156 13.9554 23.676 13.9777C23.9261 13.9696 24.1753 14.0129 24.408 14.1049C24.6408 14.197 24.8522 14.3358 25.0292 14.5128C25.2061 14.6897 25.3449 14.9011 25.437 15.1339C25.529 15.3666 25.5723 15.6158 25.5642 15.8659V32.1341C25.5567 32.6326 25.3554 33.1085 25.0029 33.461C24.6504 33.8135 24.1744 34.0149 23.676 34.0224C23.4184 34.0321 23.1615 33.9909 22.9199 33.9013C22.6782 33.8116 22.4566 33.6752 22.2678 33.4998C22.0789 33.3244 21.9265 33.1135 21.8192 32.8792C21.7119 32.6448 21.6518 32.3917 21.6425 32.1341ZM70.3017 9.32962H56.3575V14.2682H60.8603V38.5251H65.7989V14.2682H70.3017V9.32962ZM84.8268 9.32962V32.1341C84.8268 32.6349 84.6279 33.1152 84.2738 33.4693C83.9196 33.8234 83.4393 34.0224 82.9385 34.0224C82.4377 34.0224 81.9575 33.8234 81.6033 33.4693C81.2492 33.1152 81.0503 32.6349 81.0503 32.1341V9.32962H75.9665V32.1341C75.9665 33.9832 76.701 35.7566 78.0086 37.0641C79.3161 38.3716 81.0894 39.1062 82.9385 39.1062C84.7877 39.1062 86.561 38.3716 87.8685 37.0641C89.1761 35.7566 89.9106 33.9832 89.9106 32.1341V9.32962H84.8268ZM130 14.2682V9.32962H117.799V38.5251H130V33.5866H122.737V26.0335H127.385V21.095H122.737V14.2682H130ZM51.7095 38.5251H46.4804L42.8492 24.7263C43.7552 24.547 44.5702 24.0571 45.1535 23.3411C45.7369 22.6252 46.0521 21.728 46.0447 20.8045V16.3017C46.0506 16.033 46.0021 15.7659 45.902 15.5165C45.8019 15.2671 45.6524 15.0405 45.4623 14.8505C45.2723 14.6605 45.0458 14.5109 44.7964 14.4108C44.5469 14.3107 44.2798 14.2622 44.0112 14.2682H42.1229V38.5251H37.1844V9.32962H44.0112C45.8153 9.31344 47.5543 10.0031 48.857 11.2515C50.1596 12.4999 50.9227 14.208 50.9832 16.0112V20.6592C51.0496 21.8655 50.8348 23.0706 50.3559 24.1797C49.877 25.2888 49.147 26.2715 48.2235 27.0503L51.7095 38.5251ZM106.76 9.32962V25.3073L101.676 9.32962H96.5922V38.5251H101.676V24.2905L106.324 38.5251H111.844V9.32962H106.76ZM0 9.76537V38.9609H5.22905V26.4693H10.0223V21.5307H5.22905V14.7039H12.7821V9.76537H0Z" fill="black"/>
</g>
<defs>
<clipPath id="clip0_1_728">
<rect width="130" height="48" fill="white"/>
</clipPath>
</defs>
</svg>
