<svg width="80" height="50" viewBox="0 0 80 50" fill="none" xmlns="http://www.w3.org/2000/svg">
<g clip-path="url(#clip0_1_725)">
<path d="M50.3207 32.1536C49.8192 31.0003 49.5522 29.6821 49.5522 28.1991C49.5522 20.9173 56.0361 17.7091 62.629 17.7091H63.066C65.0695 17.7091 73.0828 18.2139 73.9207 26.2524L65.9435 27.1177C65.8708 24.9186 65.3972 22.6117 62.7017 22.6117C59.2414 22.6117 58.9863 25.4594 58.9863 28.163V28.2352C58.9863 30.9387 59.2779 33.7865 62.7019 33.7865C64.4868 33.7865 66.0892 32.7771 66.0892 30.6142H74.0299L73.9934 31.2992C72.6823 37.6796 66.8178 38.6889 62.629 38.6889C57.6352 38.6889 52.6757 36.8487 50.597 32.7705V38.0576H36.0658V32.1536H38.811V25.9959C38.811 24.1488 37.4567 23.3155 35.7364 23.3155C33.5401 23.3155 31.893 24.9093 31.893 27.0827V32.1897H34.7115V38.0937H19.8507V32.1897H22.5228V23.3155H19.8508V17.4115H31.5636V21.5045C31.7833 21.3234 31.9662 21.1061 32.1127 20.925C34.2357 18.4983 36.688 17.629 39.909 17.629C44.4478 17.629 48.1081 19.44 48.1081 24.4023V32.1897V32.1536H50.3207ZM0 17.5938V11.3111H18.806V17.5938H15.2549V32.2775H18.806V38.0937H0V32.2775H3.51467V17.5939L0 17.5938ZM76.7164 38.2423C74.9031 38.2423 73.4329 36.7767 73.4329 34.9689C73.4329 33.1609 74.9031 31.6955 76.7164 31.6955C78.5298 31.6955 80 33.1611 80 34.9691C80 36.7769 78.5298 38.2423 76.7164 38.2423Z" fill="black"/>
</g>
<defs>
<clipPath id="clip0_1_725">
<rect width="80" height="50" fill="white"/>
</clipPath>
</defs>
</svg>
